# File generated by ImageToStl.com - Free Image and 3D model conversion tools

mtllib samplecap.mtl

o obj1
v -77 3 3
v -77 3 -3
v -77 -3 3
v -77 -3 -3
v -83 3 -3
v -83 3 3
v -83 -3 -3
v -83 -3 3
v -83 3 -3
v -77 3 -3
v -83 3 3
v -77 3 3
v -83 -3 3
v -77 -3 3
v -83 -3 -3
v -77 -3 -3
v -83 3 3
v -77 3 3
v -83 -3 3
v -77 -3 3
v -77 3 -3
v -83 3 -3
v -77 -3 -3
v -83 -3 -3
vn 1 0 0
vn -1 0 0
vn 0 1 0
vn 0 -1 0
vn -0 0 1
vn -0 -0 -1
usemtl mat0
f 1//1 3//1 2//1
f 3//1 4//1 2//1
f 5//2 7//2 6//2
f 7//2 8//2 6//2
f 9//3 11//3 10//3
f 11//3 12//3 10//3
f 13//4 15//4 14//4
f 15//4 16//4 14//4
f 17//5 19//5 18//5
f 19//5 20//5 18//5
f 21//6 23//6 22//6
f 23//6 24//6 22//6
# Vertices: 24, normals: 6, texture coordinates: 0, faces: 12

o obj2
v -67 3 3
v -67 3 -3
v -67 -3 3
v -67 -3 -3
v -73 3 -3
v -73 3 3
v -73 -3 -3
v -73 -3 3
v -73 3 -3
v -67 3 -3
v -73 3 3
v -67 3 3
v -73 -3 3
v -67 -3 3
v -73 -3 -3
v -67 -3 -3
v -73 3 3
v -67 3 3
v -73 -3 3
v -67 -3 3
v -67 3 -3
v -73 3 -3
v -67 -3 -3
v -73 -3 -3
vn 1 0 0
vn -1 0 0
vn 0 1 0
vn 0 -1 0
vn -0 0 1
vn -0 -0 -1
usemtl mat1
f 25//7 27//7 26//7
f 27//7 28//7 26//7
f 29//8 31//8 30//8
f 31//8 32//8 30//8
f 33//9 35//9 34//9
f 35//9 36//9 34//9
f 37//10 39//10 38//10
f 39//10 40//10 38//10
f 41//11 43//11 42//11
f 43//11 44//11 42//11
f 45//12 47//12 46//12
f 47//12 48//12 46//12
# Vertices: 24, normals: 6, texture coordinates: 0, faces: 12

o obj3
v -57 3 3
v -57 3 -3
v -57 -3 3
v -57 -3 -3
v -63 3 -3
v -63 3 3
v -63 -3 -3
v -63 -3 3
v -63 3 -3
v -57 3 -3
v -63 3 3
v -57 3 3
v -63 -3 3
v -57 -3 3
v -63 -3 -3
v -57 -3 -3
v -63 3 3
v -57 3 3
v -63 -3 3
v -57 -3 3
v -57 3 -3
v -63 3 -3
v -57 -3 -3
v -63 -3 -3
vn 1 0 0
vn -1 0 0
vn 0 1 0
vn 0 -1 0
vn -0 0 1
vn -0 -0 -1
usemtl mat2
f 49//13 51//13 50//13
f 51//13 52//13 50//13
f 53//14 55//14 54//14
f 55//14 56//14 54//14
f 57//15 59//15 58//15
f 59//15 60//15 58//15
f 61//16 63//16 62//16
f 63//16 64//16 62//16
f 65//17 67//17 66//17
f 67//17 68//17 66//17
f 69//18 71//18 70//18
f 71//18 72//18 70//18
# Vertices: 24, normals: 6, texture coordinates: 0, faces: 12

o obj4
v -47 3 3
v -47 3 -3
v -47 -3 3
v -47 -3 -3
v -53 3 -3
v -53 3 3
v -53 -3 -3
v -53 -3 3
v -53 3 -3
v -47 3 -3
v -53 3 3
v -47 3 3
v -53 -3 3
v -47 -3 3
v -53 -3 -3
v -47 -3 -3
v -53 3 3
v -47 3 3
v -53 -3 3
v -47 -3 3
v -47 3 -3
v -53 3 -3
v -47 -3 -3
v -53 -3 -3
vn 1 0 0
vn -1 0 0
vn 0 1 0
vn 0 -1 0
vn -0 0 1
vn -0 -0 -1
usemtl mat3
f 73//19 75//19 74//19
f 75//19 76//19 74//19
f 77//20 79//20 78//20
f 79//20 80//20 78//20
f 81//21 83//21 82//21
f 83//21 84//21 82//21
f 85//22 87//22 86//22
f 87//22 88//22 86//22
f 89//23 91//23 90//23
f 91//23 92//23 90//23
f 93//24 95//24 94//24
f 95//24 96//24 94//24
# Vertices: 24, normals: 6, texture coordinates: 0, faces: 12

o obj5
v -37 3 3
v -37 3 -3
v -37 -3 3
v -37 -3 -3
v -43 3 -3
v -43 3 3
v -43 -3 -3
v -43 -3 3
v -43 3 -3
v -37 3 -3
v -43 3 3
v -37 3 3
v -43 -3 3
v -37 -3 3
v -43 -3 -3
v -37 -3 -3
v -43 3 3
v -37 3 3
v -43 -3 3
v -37 -3 3
v -37 3 -3
v -43 3 -3
v -37 -3 -3
v -43 -3 -3
vn 1 0 0
vn -1 0 0
vn 0 1 0
vn 0 -1 0
vn -0 0 1
vn -0 -0 -1
usemtl mat4
f 97//25 99//25 98//25
f 99//25 100//25 98//25
f 101//26 103//26 102//26
f 103//26 104//26 102//26
f 105//27 107//27 106//27
f 107//27 108//27 106//27
f 109//28 111//28 110//28
f 111//28 112//28 110//28
f 113//29 115//29 114//29
f 115//29 116//29 114//29
f 117//30 119//30 118//30
f 119//30 120//30 118//30
# Vertices: 24, normals: 6, texture coordinates: 0, faces: 12

o obj6
v -27 3 3
v -27 3 -3
v -27 -3 3
v -27 -3 -3
v -33 3 -3
v -33 3 3
v -33 -3 -3
v -33 -3 3
v -33 3 -3
v -27 3 -3
v -33 3 3
v -27 3 3
v -33 -3 3
v -27 -3 3
v -33 -3 -3
v -27 -3 -3
v -33 3 3
v -27 3 3
v -33 -3 3
v -27 -3 3
v -27 3 -3
v -33 3 -3
v -27 -3 -3
v -33 -3 -3
vn 1 0 0
vn -1 0 0
vn 0 1 0
vn 0 -1 0
vn -0 0 1
vn -0 -0 -1
usemtl mat5
f 121//31 123//31 122//31
f 123//31 124//31 122//31
f 125//32 127//32 126//32
f 127//32 128//32 126//32
f 129//33 131//33 130//33
f 131//33 132//33 130//33
f 133//34 135//34 134//34
f 135//34 136//34 134//34
f 137//35 139//35 138//35
f 139//35 140//35 138//35
f 141//36 143//36 142//36
f 143//36 144//36 142//36
# Vertices: 24, normals: 6, texture coordinates: 0, faces: 12

o obj7
v -17 3 3
v -17 3 -3
v -17 -3 3
v -17 -3 -3
v -23 3 -3
v -23 3 3
v -23 -3 -3
v -23 -3 3
v -23 3 -3
v -17 3 -3
v -23 3 3
v -17 3 3
v -23 -3 3
v -17 -3 3
v -23 -3 -3
v -17 -3 -3
v -23 3 3
v -17 3 3
v -23 -3 3
v -17 -3 3
v -17 3 -3
v -23 3 -3
v -17 -3 -3
v -23 -3 -3
vn 1 0 0
vn -1 0 0
vn 0 1 0
vn 0 -1 0
vn -0 0 1
vn -0 -0 -1
usemtl mat6
f 145//37 147//37 146//37
f 147//37 148//37 146//37
f 149//38 151//38 150//38
f 151//38 152//38 150//38
f 153//39 155//39 154//39
f 155//39 156//39 154//39
f 157//40 159//40 158//40
f 159//40 160//40 158//40
f 161//41 163//41 162//41
f 163//41 164//41 162//41
f 165//42 167//42 166//42
f 167//42 168//42 166//42
# Vertices: 24, normals: 6, texture coordinates: 0, faces: 12

o obj8
v -7 3 3
v -7 3 -3
v -7 -3 3
v -7 -3 -3
v -13 3 -3
v -13 3 3
v -13 -3 -3
v -13 -3 3
v -13 3 -3
v -7 3 -3
v -13 3 3
v -7 3 3
v -13 -3 3
v -7 -3 3
v -13 -3 -3
v -7 -3 -3
v -13 3 3
v -7 3 3
v -13 -3 3
v -7 -3 3
v -7 3 -3
v -13 3 -3
v -7 -3 -3
v -13 -3 -3
vn 1 0 0
vn -1 0 0
vn 0 1 0
vn 0 -1 0
vn -0 0 1
vn -0 -0 -1
usemtl mat7
f 169//43 171//43 170//43
f 171//43 172//43 170//43
f 173//44 175//44 174//44
f 175//44 176//44 174//44
f 177//45 179//45 178//45
f 179//45 180//45 178//45
f 181//46 183//46 182//46
f 183//46 184//46 182//46
f 185//47 187//47 186//47
f 187//47 188//47 186//47
f 189//48 191//48 190//48
f 191//48 192//48 190//48
# Vertices: 24, normals: 6, texture coordinates: 0, faces: 12

o obj9
v 3 3 3
v 3 3 -3
v 3 -3 3
v 3 -3 -3
v -3 3 -3
v -3 3 3
v -3 -3 -3
v -3 -3 3
v -3 3 -3
v 3 3 -3
v -3 3 3
v 3 3 3
v -3 -3 3
v 3 -3 3
v -3 -3 -3
v 3 -3 -3
v -3 3 3
v 3 3 3
v -3 -3 3
v 3 -3 3
v 3 3 -3
v -3 3 -3
v 3 -3 -3
v -3 -3 -3
vn 1 0 0
vn -1 0 0
vn 0 1 0
vn 0 -1 0
vn -0 0 1
vn -0 -0 -1
usemtl mat8
f 193//49 195//49 194//49
f 195//49 196//49 194//49
f 197//50 199//50 198//50
f 199//50 200//50 198//50
f 201//51 203//51 202//51
f 203//51 204//51 202//51
f 205//52 207//52 206//52
f 207//52 208//52 206//52
f 209//53 211//53 210//53
f 211//53 212//53 210//53
f 213//54 215//54 214//54
f 215//54 216//54 214//54
# Vertices: 24, normals: 6, texture coordinates: 0, faces: 12

o obj10
v 13 3 3
v 13 3 -3
v 13 -3 3
v 13 -3 -3
v 7 3 -3
v 7 3 3
v 7 -3 -3
v 7 -3 3
v 7 3 -3
v 13 3 -3
v 7 3 3
v 13 3 3
v 7 -3 3
v 13 -3 3
v 7 -3 -3
v 13 -3 -3
v 7 3 3
v 13 3 3
v 7 -3 3
v 13 -3 3
v 13 3 -3
v 7 3 -3
v 13 -3 -3
v 7 -3 -3
vn 1 0 0
vn -1 0 0
vn 0 1 0
vn 0 -1 0
vn -0 0 1
vn -0 -0 -1
usemtl mat9
f 217//55 219//55 218//55
f 219//55 220//55 218//55
f 221//56 223//56 222//56
f 223//56 224//56 222//56
f 225//57 227//57 226//57
f 227//57 228//57 226//57
f 229//58 231//58 230//58
f 231//58 232//58 230//58
f 233//59 235//59 234//59
f 235//59 236//59 234//59
f 237//60 239//60 238//60
f 239//60 240//60 238//60
# Vertices: 24, normals: 6, texture coordinates: 0, faces: 12

o obj11
v 23 3 3
v 23 3 -3
v 23 -3 3
v 23 -3 -3
v 17 3 -3
v 17 3 3
v 17 -3 -3
v 17 -3 3
v 17 3 -3
v 23 3 -3
v 17 3 3
v 23 3 3
v 17 -3 3
v 23 -3 3
v 17 -3 -3
v 23 -3 -3
v 17 3 3
v 23 3 3
v 17 -3 3
v 23 -3 3
v 23 3 -3
v 17 3 -3
v 23 -3 -3
v 17 -3 -3
vn 1 0 0
vn -1 0 0
vn 0 1 0
vn 0 -1 0
vn -0 0 1
vn -0 -0 -1
usemtl mat10
f 241//61 243//61 242//61
f 243//61 244//61 242//61
f 245//62 247//62 246//62
f 247//62 248//62 246//62
f 249//63 251//63 250//63
f 251//63 252//63 250//63
f 253//64 255//64 254//64
f 255//64 256//64 254//64
f 257//65 259//65 258//65
f 259//65 260//65 258//65
f 261//66 263//66 262//66
f 263//66 264//66 262//66
# Vertices: 24, normals: 6, texture coordinates: 0, faces: 12

o obj12
v 33 3 3
v 33 3 -3
v 33 -3 3
v 33 -3 -3
v 27 3 -3
v 27 3 3
v 27 -3 -3
v 27 -3 3
v 27 3 -3
v 33 3 -3
v 27 3 3
v 33 3 3
v 27 -3 3
v 33 -3 3
v 27 -3 -3
v 33 -3 -3
v 27 3 3
v 33 3 3
v 27 -3 3
v 33 -3 3
v 33 3 -3
v 27 3 -3
v 33 -3 -3
v 27 -3 -3
vn 1 0 0
vn -1 0 0
vn 0 1 0
vn 0 -1 0
vn -0 0 1
vn -0 -0 -1
usemtl mat11
f 265//67 267//67 266//67
f 267//67 268//67 266//67
f 269//68 271//68 270//68
f 271//68 272//68 270//68
f 273//69 275//69 274//69
f 275//69 276//69 274//69
f 277//70 279//70 278//70
f 279//70 280//70 278//70
f 281//71 283//71 282//71
f 283//71 284//71 282//71
f 285//72 287//72 286//72
f 287//72 288//72 286//72
# Vertices: 24, normals: 6, texture coordinates: 0, faces: 12

o obj13
v 43 3 3
v 43 3 -3
v 43 -3 3
v 43 -3 -3
v 37 3 -3
v 37 3 3
v 37 -3 -3
v 37 -3 3
v 37 3 -3
v 43 3 -3
v 37 3 3
v 43 3 3
v 37 -3 3
v 43 -3 3
v 37 -3 -3
v 43 -3 -3
v 37 3 3
v 43 3 3
v 37 -3 3
v 43 -3 3
v 43 3 -3
v 37 3 -3
v 43 -3 -3
v 37 -3 -3
vn 1 0 0
vn -1 0 0
vn 0 1 0
vn 0 -1 0
vn -0 0 1
vn -0 -0 -1
usemtl mat12
f 289//73 291//73 290//73
f 291//73 292//73 290//73
f 293//74 295//74 294//74
f 295//74 296//74 294//74
f 297//75 299//75 298//75
f 299//75 300//75 298//75
f 301//76 303//76 302//76
f 303//76 304//76 302//76
f 305//77 307//77 306//77
f 307//77 308//77 306//77
f 309//78 311//78 310//78
f 311//78 312//78 310//78
# Vertices: 24, normals: 6, texture coordinates: 0, faces: 12

o obj14
v 53 3 3
v 53 3 -3
v 53 -3 3
v 53 -3 -3
v 47 3 -3
v 47 3 3
v 47 -3 -3
v 47 -3 3
v 47 3 -3
v 53 3 -3
v 47 3 3
v 53 3 3
v 47 -3 3
v 53 -3 3
v 47 -3 -3
v 53 -3 -3
v 47 3 3
v 53 3 3
v 47 -3 3
v 53 -3 3
v 53 3 -3
v 47 3 -3
v 53 -3 -3
v 47 -3 -3
vn 1 0 0
vn -1 0 0
vn 0 1 0
vn 0 -1 0
vn -0 0 1
vn -0 -0 -1
usemtl mat13
f 313//79 315//79 314//79
f 315//79 316//79 314//79
f 317//80 319//80 318//80
f 319//80 320//80 318//80
f 321//81 323//81 322//81
f 323//81 324//81 322//81
f 325//82 327//82 326//82
f 327//82 328//82 326//82
f 329//83 331//83 330//83
f 331//83 332//83 330//83
f 333//84 335//84 334//84
f 335//84 336//84 334//84
# Vertices: 24, normals: 6, texture coordinates: 0, faces: 12

o obj15
v 63 3 3
v 63 3 -3
v 63 -3 3
v 63 -3 -3
v 57 3 -3
v 57 3 3
v 57 -3 -3
v 57 -3 3
v 57 3 -3
v 63 3 -3
v 57 3 3
v 63 3 3
v 57 -3 3
v 63 -3 3
v 57 -3 -3
v 63 -3 -3
v 57 3 3
v 63 3 3
v 57 -3 3
v 63 -3 3
v 63 3 -3
v 57 3 -3
v 63 -3 -3
v 57 -3 -3
vn 1 0 0
vn -1 0 0
vn 0 1 0
vn 0 -1 0
vn -0 0 1
vn -0 -0 -1
usemtl mat14
f 337//85 339//85 338//85
f 339//85 340//85 338//85
f 341//86 343//86 342//86
f 343//86 344//86 342//86
f 345//87 347//87 346//87
f 347//87 348//87 346//87
f 349//88 351//88 350//88
f 351//88 352//88 350//88
f 353//89 355//89 354//89
f 355//89 356//89 354//89
f 357//90 359//90 358//90
f 359//90 360//90 358//90
# Vertices: 24, normals: 6, texture coordinates: 0, faces: 12

o obj16
v 73 3 3
v 73 3 -3
v 73 -3 3
v 73 -3 -3
v 67 3 -3
v 67 3 3
v 67 -3 -3
v 67 -3 3
v 67 3 -3
v 73 3 -3
v 67 3 3
v 73 3 3
v 67 -3 3
v 73 -3 3
v 67 -3 -3
v 73 -3 -3
v 67 3 3
v 73 3 3
v 67 -3 3
v 73 -3 3
v 73 3 -3
v 67 3 -3
v 73 -3 -3
v 67 -3 -3
vn 1 0 0
vn -1 0 0
vn 0 1 0
vn 0 -1 0
vn -0 0 1
vn -0 -0 -1
usemtl mat15
f 361//91 363//91 362//91
f 363//91 364//91 362//91
f 365//92 367//92 366//92
f 367//92 368//92 366//92
f 369//93 371//93 370//93
f 371//93 372//93 370//93
f 373//94 375//94 374//94
f 375//94 376//94 374//94
f 377//95 379//95 378//95
f 379//95 380//95 378//95
f 381//96 383//96 382//96
f 383//96 384//96 382//96
# Vertices: 24, normals: 6, texture coordinates: 0, faces: 12

